<svg width="23" height="22" viewBox="0 0 23 22" fill="none" xmlns="http://www.w3.org/2000/svg">
<g clip-path="url(#clip0_73_193)">
<path fill-rule="evenodd" clip-rule="evenodd" d="M1.5765 3.1355C1.0625 4.1435 1.0625 5.4635 1.0625 8.1035V15.0185C1.0625 17.6585 1.0625 18.9785 1.5765 19.9865C2.02849 20.8734 2.74959 21.5945 3.6365 22.0465C4.6455 22.5615 5.9665 22.5615 8.6065 22.5615H15.5205C18.1605 22.5615 19.4805 22.5615 20.4885 22.0475C21.3754 21.5955 22.0965 20.8744 22.5485 19.9875C23.0635 18.9785 23.0635 17.6575 23.0635 15.0175V8.1045C23.0635 5.4645 23.0635 4.1445 22.5495 3.1365C22.0975 2.24959 21.3764 1.52849 20.4895 1.0765C19.4805 0.5625 18.1595 0.5625 15.5195 0.5625H8.6065C5.9665 0.5625 4.6465 0.5625 3.6385 1.0755C2.75155 1.52744 2.03044 2.24855 1.5785 3.1355H1.5765ZM14.4415 5.2755C15.9485 5.3595 17.3755 5.8615 18.5645 6.8675C19.9135 9.5495 20.6265 12.5675 20.7055 15.6675C19.5165 17.0085 17.8515 17.8475 16.1065 17.8475C16.1065 17.8475 15.5515 17.1765 15.1555 16.5895C16.1855 16.3385 17.1375 15.7515 17.7725 14.8295C17.2175 15.1645 16.6625 15.4995 16.1065 15.7515C15.3935 16.0865 14.6795 16.2545 13.9665 16.4215C13.3315 16.5055 12.6965 16.5895 12.0635 16.5895C11.4285 16.5895 10.7935 16.5055 10.1605 16.4215C9.4465 16.2545 8.7325 16.0865 8.0195 15.7515C7.4645 15.4995 6.9095 15.1645 6.3535 14.8295C6.9885 15.7515 7.9395 16.3385 8.9705 16.5895C8.67067 17.0212 8.3534 17.4406 8.0195 17.8465C6.2745 17.8465 4.6095 17.0085 3.4195 15.6675C3.4995 12.5675 4.2135 9.5495 5.5615 6.8675C6.7505 5.8615 8.1775 5.3595 9.6845 5.2755L9.9225 5.5265C8.5745 5.8615 7.3845 6.5325 6.2745 7.4545C7.64279 6.68386 9.1533 6.19906 10.7145 6.0295C11.1905 5.9455 11.5875 5.9455 12.0625 5.9455C12.5385 5.9455 12.9355 5.9455 13.4115 6.0295C14.9727 6.19906 16.4832 6.68386 17.8515 7.4545C16.7415 6.5325 15.5515 5.8615 14.2035 5.5265L14.4415 5.2755ZM7.9405 12.4825C7.9405 13.4045 8.6545 14.1595 9.4475 14.1595C10.2405 14.1595 10.9535 13.4045 10.9535 12.4825C10.9535 11.5615 10.2405 10.8065 9.4475 10.8065C8.6545 10.8065 7.9405 11.5615 7.9405 12.4825ZM13.1745 12.4825C13.1745 13.4045 13.8875 14.1595 14.6805 14.1595C15.4735 14.1595 16.1875 13.4045 16.1875 12.4825C16.1875 11.5615 15.4735 10.8065 14.6805 10.8065C13.8875 10.8065 13.1745 11.5615 13.1745 12.4825Z" fill="#303030"/>
</g>
<defs>
<clipPath id="clip0_73_193">
<rect width="22" height="22" fill="white" transform="translate(0.5)"/>
</clipPath>
</defs>
</svg>
