<svg width="47" height="32" viewBox="0 0 47 32" fill="none" xmlns="http://www.w3.org/2000/svg">
<g clip-path="url(#clip0_73_195)">
<path fill-rule="evenodd" clip-rule="evenodd" d="M22.9995 5.36719C17.1285 5.36719 12.3672 10.1279 12.3672 16.0009C12.3672 20.6983 15.4137 24.6841 19.6391 26.0907C20.1711 26.188 20.365 25.8597 20.365 25.5777C20.365 25.325 20.3558 24.6566 20.3506 23.7695C17.3929 24.4119 16.7688 22.3439 16.7688 22.3439C16.2851 21.1154 15.588 20.7883 15.588 20.7883C14.6225 20.129 15.6611 20.1421 15.6611 20.1421C16.7284 20.2172 17.2897 21.2381 17.2897 21.2381C18.2382 22.8628 19.7788 22.3934 20.3845 22.1212C20.4812 21.4345 20.756 20.9658 21.0595 20.7002C18.6984 20.4312 16.2159 19.5193 16.2159 15.4447C16.2159 14.2834 16.6305 13.335 17.3106 12.5914C17.201 12.3225 16.8361 11.2415 17.4151 9.77732C17.4151 9.77732 18.3074 9.4914 20.3388 10.8668C21.1868 10.6311 22.0968 10.5136 23.0008 10.5091C23.9043 10.5136 24.8136 10.6311 25.6629 10.8668C27.693 9.4914 28.584 9.77732 28.584 9.77732C29.1643 11.2415 28.7994 12.3225 28.6905 12.5914C29.3719 13.335 29.7831 14.2834 29.7831 15.4447C29.7831 19.5298 27.2967 20.4287 24.9285 20.6917C25.3097 21.02 25.6498 21.6689 25.6498 22.6611C25.6498 24.0821 25.6367 25.2291 25.6367 25.5777C25.6367 25.8622 25.8287 26.1933 26.3679 26.0894C30.5899 24.6801 33.6339 20.6975 33.6339 16.0009C33.6339 10.1279 28.8725 5.36719 22.9995 5.36719Z" fill="#303030"/>
</g>
<defs>
<clipPath id="clip0_73_195">
<rect width="22" height="22" fill="white" transform="translate(12 5)"/>
</clipPath>
</defs>
</svg>
