<svg width="108" height="92" viewBox="0 0 108 92" fill="none" xmlns="http://www.w3.org/2000/svg">
<path d="M94.978 57.9628C97.3799 57.9722 99.734 57.3064 101.759 56.0446C103.785 54.7828 105.396 52.9784 106.4 50.8466C107.405 48.7147 107.761 46.3455 107.426 44.0215C107.09 41.6975 106.078 39.5168 104.509 37.7395C102.94 35.9623 100.881 34.6635 98.578 33.998C96.2746 33.3326 93.8239 33.3287 91.5182 33.9867C89.2125 34.6447 87.1493 35.9369 85.5745 37.7092C83.9997 39.4814 82.98 41.6588 82.6368 43.9818H64.3934C63.9449 41.3893 62.5161 39.0561 60.3901 37.4445C58.264 35.8329 55.596 35.0605 52.9146 35.2803C50.2332 35.5002 47.7342 36.6963 45.9128 38.6316C44.0914 40.5669 43.0806 43.1002 43.0806 45.7294C43.0806 48.3586 44.0914 50.8919 45.9128 52.8272C47.7342 54.7625 50.2332 55.9586 52.9146 56.1784C55.596 56.3983 58.264 55.6259 60.3901 54.0143C62.5161 52.4027 63.9449 50.0695 64.3934 47.477H82.6368C82.8504 49.2184 83.4616 50.8907 84.4254 52.3704L60.6374 72.6429C58.7547 71.0419 56.3364 70.1714 53.8408 70.1962C51.5288 70.2539 49.2869 70.9841 47.4019 72.2934L29.1585 55.1666C31.2256 52.4325 32.3527 49.1286 32.3779 45.7294C32.4167 42.4018 31.3498 39.1517 29.3373 36.467L45.7922 21.9616C48.0641 23.7739 50.908 24.7619 53.8408 24.7578C56.317 24.7578 58.7376 24.0404 60.7965 22.6961C62.8554 21.3519 64.4602 19.4413 65.4078 17.2059C66.3554 14.9706 66.6033 12.5109 66.1202 10.1378C65.6371 7.76476 64.4447 5.58498 62.6938 3.8741C60.9428 2.16323 58.712 0.998111 56.2833 0.526083C53.8547 0.0540539 51.3373 0.296316 49.0496 1.22223C46.7618 2.14815 44.8065 3.71614 43.4308 5.72791C42.0551 7.73969 41.3208 10.1049 41.3208 12.5244C41.2935 14.9591 42.0438 17.3416 43.4671 19.3402L27.0122 34.0203C24.0543 31.4499 20.2391 30.0209 16.2808 30.0007C12.0115 30.0007 7.91714 31.6578 4.89834 34.6075C1.87954 37.5572 0.183594 41.5579 0.183594 45.7294C0.183594 49.9009 1.87954 53.9015 4.89834 56.8512C7.91714 59.8009 12.0115 61.4581 16.2808 61.4581C20.0679 61.4376 23.7318 60.1414 26.6545 57.788L44.8979 74.74C43.7667 76.5279 43.1489 78.5804 43.1093 80.682C43.1093 83.463 44.24 86.1301 46.2525 88.0965C48.265 90.063 50.9946 91.1678 53.8408 91.1678C56.6869 91.1678 59.4165 90.063 61.4291 88.0965C63.4416 86.1301 64.5722 83.463 64.5722 80.682C64.5915 78.7609 64.0317 76.8767 62.9625 75.2643L86.7505 54.9918C87.9755 55.978 89.3678 56.7469 90.8642 57.2637L87.6448 73.6915C85.8841 73.7259 84.173 74.2675 82.7261 75.2483C81.2792 76.2291 80.1608 77.6056 79.5113 79.205C78.8618 80.8044 78.71 82.5556 79.075 84.2389C79.44 85.9223 80.3055 87.4629 81.563 88.6675C82.8205 89.8722 84.4141 90.6872 86.1437 91.0105C87.8734 91.3337 89.6623 91.1507 91.286 90.4845C92.9097 89.8183 94.2959 88.6986 95.2709 87.2656C96.2459 85.8327 96.7662 84.1503 96.7665 82.4296C96.7819 80.6991 96.2603 79.0047 95.2705 77.5696C94.2808 76.1345 92.8692 75.0262 91.222 74.3905L94.4414 57.9628H94.978ZM53.8408 52.7199C52.4258 52.7199 51.0426 52.3099 49.8661 51.5418C48.6896 50.7737 47.7726 49.6819 47.2311 48.4045C46.6896 47.1272 46.5479 45.7216 46.824 44.3656C47.1 43.0096 47.7814 41.764 48.7819 40.7864C49.7825 39.8087 51.0573 39.1429 52.445 38.8732C53.8328 38.6035 55.2713 38.7419 56.5786 39.271C57.8859 39.8001 59.0032 40.6961 59.7894 41.8457C60.5755 42.9953 60.9951 44.3468 60.9951 45.7294C60.9951 47.5834 60.2413 49.3615 58.8996 50.6724C57.5579 51.9834 55.7382 52.7199 53.8408 52.7199ZM93.1894 82.4296C93.1894 83.4666 92.8747 84.4802 92.2851 85.3424C91.6955 86.2046 90.8575 86.8766 89.877 87.2734C88.8966 87.6702 87.8177 87.7741 86.7769 87.5718C85.736 87.3695 84.7799 86.8701 84.0295 86.1369C83.2791 85.4037 82.7681 84.4695 82.5611 83.4524C82.354 82.4354 82.4603 81.3813 82.8664 80.4232C83.2725 79.4652 83.9602 78.6464 84.8426 78.0703C85.725 77.4942 86.7624 77.1867 87.8237 77.1867C88.535 77.1623 89.2439 77.2812 89.9062 77.5361C90.5685 77.7909 91.1701 78.1762 91.6734 78.668C92.1767 79.1598 92.571 79.7476 92.8319 80.3947C93.0927 81.0419 93.2144 81.7345 93.1894 82.4296ZM53.8408 3.78628C55.6095 3.78628 57.3385 4.29876 58.8092 5.25892C60.2798 6.21908 61.426 7.5838 62.1029 9.18048C62.7798 10.7772 62.9569 12.5341 62.6118 14.2292C62.2668 15.9242 61.415 17.4812 60.1643 18.7032C58.9137 19.9253 57.3202 20.7575 55.5854 21.0947C53.8507 21.4318 52.0526 21.2588 50.4185 20.5974C48.7844 19.9361 47.3877 18.8161 46.4051 17.3791C45.4224 15.9421 44.8979 14.2527 44.8979 12.5244C44.8979 10.2069 45.8401 7.98435 47.5172 6.34562C49.1943 4.7069 51.469 3.78628 53.8408 3.78628ZM16.2808 57.9628C13.8045 57.9628 11.3839 57.2453 9.325 55.9011C7.2661 54.5569 5.66138 52.6463 4.71377 50.4109C3.76616 48.1755 3.51822 45.7158 4.00131 43.3428C4.4844 40.9697 5.67681 38.7899 7.42777 37.0791C9.17872 35.3682 11.4096 34.2031 13.8382 33.731C16.2669 33.259 18.7842 33.5013 21.072 34.4272C23.3597 35.3531 25.315 36.9211 26.6908 38.9329C28.0665 40.9446 28.8008 43.3098 28.8008 45.7294C28.8008 48.9739 27.4817 52.0855 25.1337 54.3797C22.7858 56.6739 19.6013 57.9628 16.2808 57.9628ZM53.8408 87.6725C52.4258 87.6725 51.0426 87.2625 49.8661 86.4944C48.6896 85.7263 47.7726 84.6345 47.2311 83.3571C46.6896 82.0798 46.5479 80.6742 46.824 79.3182C47.1 77.9622 47.7814 76.7166 48.7819 75.7389C49.7825 74.7613 51.0573 74.0955 52.445 73.8258C53.8328 73.5561 55.2713 73.6945 56.5786 74.2236C57.8859 74.7527 59.0032 75.6487 59.7894 76.7983C60.5755 77.9478 60.9951 79.2994 60.9951 80.682C60.9951 82.536 60.2413 84.314 58.8996 85.625C57.5579 86.936 55.7382 87.6725 53.8408 87.6725ZM86.0351 45.7294C86.0351 44.0011 86.5596 42.3117 87.5422 40.8747C88.5249 39.4378 89.9216 38.3178 91.5557 37.6564C93.1898 36.995 94.9879 36.822 96.7226 37.1591C98.4574 37.4963 100.051 38.3285 101.302 39.5506C102.552 40.7726 103.404 42.3296 103.749 44.0247C104.094 45.7197 103.917 47.4766 103.24 49.0733C102.563 50.67 101.417 52.0347 99.9464 52.9949C98.4757 53.9551 96.7467 54.4675 94.978 54.4675C92.6062 54.4675 90.3315 53.5469 88.6544 51.9082C86.9773 50.2695 86.0351 48.0469 86.0351 45.7294Z" fill="#8A78EC"/>
</svg>
