<svg width="100" height="98" viewBox="0 0 100 98" fill="none" xmlns="http://www.w3.org/2000/svg">
<path d="M43.9606 2.13657C43.2108 1.40598 42.1994 1 41.15 1C40.1006 1 39.0891 1.40598 38.3394 2.13656C37.5888 2.868 37.1622 3.86563 37.1622 4.91149V27.4555C30.4237 28.3133 24.1505 31.3168 19.3273 36.0169C14.5074 40.7137 11.4188 46.829 10.5334 53.4069H5.29639C4.24699 53.4069 3.23552 53.8128 2.4858 54.5434C1.73519 55.2749 1.30859 56.2725 1.30859 57.3184C1.30859 58.3642 1.73519 59.3618 2.4858 60.0933C3.23552 60.8239 4.24699 61.2298 5.29639 61.2298H10.5334C11.4188 67.8077 14.5074 73.923 19.3273 78.6198C24.1505 83.3198 30.4237 86.3234 37.1622 87.1812V92.2563C37.1622 93.3021 37.5888 94.2998 38.3394 95.0312C39.0891 95.7618 40.1006 96.1677 41.15 96.1677C42.1994 96.1677 43.2108 95.7618 43.9606 95.0312C44.7112 94.2998 45.1378 93.3021 45.1378 92.2563V87.1812C51.8763 86.3234 58.1495 83.3198 62.9727 78.6198C67.7926 73.923 70.8811 67.8077 71.7665 61.2298H94.9303C95.9797 61.2298 96.9912 60.8239 97.7409 60.0933C98.4915 59.3618 98.9181 58.3642 98.9181 57.3184C98.9181 56.2725 98.4915 55.2749 97.7409 54.5434C96.9912 53.8128 95.9797 53.4069 94.9303 53.4069H71.7665C70.8811 46.829 67.7926 40.7137 62.9727 36.0169C58.1495 31.3168 51.8763 28.3133 45.1378 27.4555V4.91149C45.1378 3.86563 44.7112 2.868 43.9606 2.13657ZM24.945 73.0754C21.6281 69.8423 19.4202 65.7049 18.6007 61.2298H37.1622V79.2774C32.5392 78.4803 28.2718 76.3182 24.945 73.0754ZM24.9466 41.5649C28.2733 38.3232 32.5401 36.1619 37.1622 35.3651V53.4069H18.601C19.4216 48.933 21.6299 44.7969 24.9466 41.5649ZM57.3586 73.077C54.0307 76.32 49.7619 78.4816 45.1378 79.2777V61.2298H63.7052C62.8853 65.7057 60.6766 69.8437 57.3586 73.077ZM57.3571 41.5634C60.6748 44.7955 62.8839 48.9322 63.7048 53.4069H45.1378V35.3648C49.7611 36.1606 54.0292 38.3215 57.3571 41.5634Z" stroke="#8A78EC" stroke-width="2"/>
</svg>
